<svg width="437" height="219" viewBox="0 0 437 219" fill="none" xmlns="http://www.w3.org/2000/svg">
<path d="M174.5 117L175.349 118.237L174.5 117ZM427.5 219L436.673 204.308L419.362 203.71L427.5 219ZM0.702238 1.75221C1.74866 3.55758 2.83888 5.44069 3.97031 7.3894L6.56472 5.88307C5.43402 3.93562 4.34518 2.05489 3.29776 0.247794L0.702238 1.75221ZM10.5816 18.6756C12.7256 22.2923 14.9815 26.0472 17.3441 29.8952L19.9007 28.3255C17.5478 24.4934 15.3001 20.7521 13.1623 17.1458L10.5816 18.6756ZM24.2975 40.9749C26.6204 44.5907 29.0277 48.249 31.5156 51.9159L33.9982 50.2316C31.5259 46.5876 29.1324 42.9505 26.8215 39.3533L24.2975 40.9749ZM39.0407 62.6655C41.5942 66.1952 44.2199 69.7029 46.9147 73.1584L49.2803 71.3135C46.6098 67.8891 44.0057 64.4103 41.4713 60.9071L39.0407 62.6655ZM55.2079 83.3439C58.0665 86.6984 60.9929 89.9695 63.9836 93.1255L66.1612 91.0619C63.2101 87.9478 60.319 84.7163 57.4913 81.3981L55.2079 83.3439ZM73.3407 102.398C76.6128 105.428 79.9537 108.298 83.3593 110.97L85.2112 108.61C81.8762 105.993 78.5975 103.177 75.3791 100.197L73.3407 102.398ZM94.1426 118.593C97.9543 120.99 101.84 123.114 105.794 124.918L107.039 122.189C103.218 120.446 99.4503 118.387 95.7394 116.054L94.1426 118.593ZM118.307 129.443C122.627 130.592 127.018 131.329 131.472 131.596L131.652 128.601C127.41 128.347 123.218 127.645 119.078 126.544L118.307 129.443ZM144.809 130.963C149.066 130.298 153.362 129.178 157.692 127.562L156.643 124.751C152.498 126.298 148.398 127.366 144.346 127.999L144.809 130.963ZM169.701 121.823C171.579 120.726 173.462 119.532 175.349 118.237L173.651 115.763C171.822 117.018 170.001 118.173 168.188 119.232L169.701 121.823ZM175.349 118.237C177.025 117.086 178.756 116.015 180.539 115.021L179.078 112.401C177.216 113.439 175.406 114.559 173.651 115.763L175.349 118.237ZM191.696 110.006C195.477 108.667 199.425 107.591 203.519 106.762L202.924 103.822C198.703 104.676 194.618 105.788 190.694 107.179L191.696 110.006ZM215.734 105.044C219.755 104.706 223.879 104.566 228.088 104.612L228.121 101.612C223.824 101.565 219.605 101.708 215.482 102.055L215.734 105.044ZM240.434 105.243C244.484 105.605 248.59 106.116 252.738 106.765L253.202 103.801C248.993 103.142 244.821 102.623 240.701 102.255L240.434 105.243ZM264.947 109.04C268.956 109.903 272.989 110.881 277.031 111.965L277.808 109.067C273.72 107.971 269.639 106.981 265.578 106.107L264.947 109.04ZM288.97 115.457C292.905 116.703 296.836 118.039 300.752 119.456L301.773 116.636C297.821 115.205 293.85 113.855 289.875 112.597L288.97 115.457ZM312.369 123.915C316.216 125.476 320.036 127.108 323.816 128.803L325.044 126.065C321.231 124.356 317.378 122.71 313.496 121.135L312.369 123.915ZM335.087 134.097C338.839 135.94 342.537 137.838 346.169 139.783L347.585 137.138C343.923 135.177 340.194 133.262 336.41 131.404L335.087 134.097ZM357.041 145.857C360.678 147.976 364.229 150.134 367.679 152.322L369.285 149.788C365.803 147.58 362.22 145.402 358.551 143.265L357.041 145.857ZM378.039 159.188C381.525 161.605 384.875 164.043 388.071 166.487L389.894 164.104C386.659 161.63 383.271 159.165 379.748 156.723L378.039 159.188ZM397.763 174.326C401.037 177.137 404.081 179.936 406.868 182.703L408.982 180.574C406.138 177.751 403.041 174.903 399.717 172.05L397.763 174.326ZM415.213 191.835C418.043 195.302 420.378 198.663 422.168 201.871L424.788 200.409C422.894 197.016 420.453 193.51 417.538 189.938L415.213 191.835Z" fill="#414D5F"/>
</svg>
