<svg xmlns="http://www.w3.org/2000/svg" width="15" height="13" viewBox="0 0 15 13" fill="none">
<path d="M1 5.75C0.585786 5.75 0.25 6.08579 0.25 6.5C0.25 6.91421 0.585786 7.25 1 7.25V5.75ZM14.5303 7.03033C14.8232 6.73744 14.8232 6.26256 14.5303 5.96967L9.75736 1.1967C9.46447 0.903806 8.98959 0.903806 8.6967 1.1967C8.40381 1.48959 8.40381 1.96447 8.6967 2.25736L12.9393 6.5L8.6967 10.7426C8.40381 11.0355 8.40381 11.5104 8.6967 11.8033C8.98959 12.0962 9.46447 12.0962 9.75736 11.8033L14.5303 7.03033ZM1 7.25H14V5.75H1V7.25Z" fill="white"/>
</svg>
