<svg width="55" height="40" viewBox="0 0 55 40" fill="none" xmlns="http://www.w3.org/2000/svg">
<g clip-path="url(#clip0_1564_9511)">
<path fill-rule="evenodd" clip-rule="evenodd" d="M9.7979 39.8084H11.0554V33.0141H9.60444L7.37971 35.9806L5.2517 33.0141H3.80078V39.8084H5.05824V34.8323L7.28298 37.7988H7.47643L9.7979 34.928V39.8084ZM46.1675 33.0141H44.6199L47.2315 37.0333V39.8084H48.489V37.0333L51.2941 33.0141H49.7464L47.9086 35.7893L46.1675 33.0141ZM44.4264 39.7127L42.3951 37.4161C43.6526 37.129 44.1362 36.172 44.1362 35.2151C44.1362 34.0668 43.2657 33.0141 41.6213 33.0141C40.5573 33.0141 39.3966 33.0141 38.3326 33.0141V39.8084H39.6868V37.5117H40.9442L42.8788 39.8084H44.4264V39.7127ZM41.6213 34.1625C42.3951 34.1625 42.782 34.7366 42.782 35.3108C42.782 35.885 42.4919 36.3634 41.6213 36.3634H39.6868V34.1625H41.6213ZM37.3653 38.5644H33.4962V37.0333H37.1718V35.7893H33.4962V34.2582H37.3653V33.0141H32.142C32.142 35.3108 32.142 37.5117 32.142 39.8084H37.3653V38.5644ZM27.886 39.8084H29.2402V34.1625H31.3682V33.0141C29.4336 33.0141 27.6925 33.0141 25.758 33.0141V34.1625H27.886V39.8084ZM24.8874 34.1625C24.4038 33.1098 23.3398 32.8228 22.179 32.8228C20.9216 32.8228 19.5674 33.3969 19.5674 34.7366C19.5674 36.2677 20.8249 36.6505 22.2758 36.8419C23.1463 36.9376 23.8234 37.2247 23.8234 37.7988C23.8234 38.5644 23.0496 38.8515 22.2758 38.8515C21.4052 38.8515 20.6314 38.5644 20.3412 37.7988L19.2772 38.2773C19.7608 39.5213 20.8249 39.9998 22.2758 39.9998C23.8234 39.9998 25.1776 39.3299 25.1776 37.7988C25.1776 36.172 23.8234 35.7893 22.3725 35.6936C21.5019 35.5979 20.8249 35.4065 20.8249 34.8323C20.8249 34.2582 21.3085 33.8754 22.2758 33.8754C23.0496 33.8754 23.63 34.2582 23.9201 34.6409L24.8874 34.1625ZM17.7296 39.8084H19.1805L16.0852 33.0141H14.6343L11.539 39.8084H12.9899L13.5703 38.5644H17.1492L17.7296 39.8084ZM16.6656 37.3204H14.0539L15.4081 34.4495L16.6656 37.3204Z" fill="white"/>
<path fill-rule="evenodd" clip-rule="evenodd" d="M42.9767 8.99515C41.2355 5.45448 37.5599 4.40185 33.981 4.40185C32.2399 4.40185 30.4988 4.78462 29.0479 5.35879C28.0806 6.02864 27.4035 6.6985 27.0166 7.17697C27.3068 5.93295 27.9839 5.0717 29.0479 4.49754V1.81812C24.6951 1.81812 21.5031 1.81812 17.2471 1.81812V6.31572H24.1147V16.555C24.1147 20.4784 23.1475 23.5406 18.698 23.5406C14.8289 23.5406 12.7009 21.8181 12.314 18.3731H7.38086C8.05795 24.6889 12.6042 28.0382 18.698 28.0382C21.6966 28.0382 23.1475 27.2727 24.8886 25.8373C24.5984 25.2631 24.4049 24.6889 24.3082 23.9234C24.5984 24.3062 24.9853 24.7846 25.3722 25.3588C27.3068 27.7511 30.4021 28.6124 34.0777 28.6124C35.4319 28.6124 36.6894 28.5167 37.8501 28.1339L36.109 27.0813L33.4006 25.5502V24.7846C31.1759 24.5932 29.0479 23.6363 27.9839 21.8181C28.5642 20.3827 28.9511 18.6602 28.9511 16.842C30.4988 17.4162 32.2399 17.799 34.0777 17.9904C34.5613 18.0861 35.045 18.0861 35.5286 18.1818L36.109 17.8947L38.8174 16.3636L41.5257 17.8947L43.3636 18.9473C42.2028 15.5023 38.4304 14.5454 34.4646 14.0669C31.6595 13.7798 29.338 13.2057 29.338 11.1961C29.338 9.47362 30.8857 8.1339 34.0777 8.1339C36.5926 8.1339 38.7206 9.37792 39.5912 10.7176L42.9767 8.99515Z" fill="white"/>
<path fill-rule="evenodd" clip-rule="evenodd" d="M46.459 28.9951C48.1034 29.1865 50.0379 29.0908 51.1986 27.9425C52.2626 26.8898 52.5528 25.3587 52.5528 23.9233V19.0429C52.5528 17.1291 53.2299 15.6937 54.971 15.4066V13.6841C53.2299 13.397 52.5528 11.8659 52.5528 10.0477V5.16735C52.5528 3.73194 52.2626 2.10515 51.1986 1.14821C50.0379 -0.0958096 48.1034 -0.0958097 46.459 0.0955779V1.81807C48.6837 1.62668 49.651 2.8707 49.651 5.35874V10.0477C49.651 10.8133 49.5543 11.9616 49.8445 12.7272C50.2314 13.4927 51.1986 14.0669 52.0692 14.5453C51.1986 15.0238 50.2314 15.598 49.8445 16.3635C49.5543 17.1291 49.651 18.2774 49.651 19.0429V23.7319C49.651 26.4114 48.7804 27.2726 46.459 27.1769V28.9951Z" fill="white"/>
<path fill-rule="evenodd" clip-rule="evenodd" d="M38.8168 14.9282L42.1055 16.8421L45.3943 18.6603V22.488V26.3158L42.1055 28.2297L38.8168 30.1435L35.4313 28.2297L32.1426 26.3158V22.488V18.6603L35.4313 16.8421L38.8168 14.9282ZM38.8168 16.3636L41.5252 17.8947L44.1368 19.4258V22.488V25.5502L41.5252 27.0813L38.8168 28.7081L36.1084 27.0813L33.4 25.5502V22.488V19.4258L36.1084 17.8947L38.8168 16.3636Z" fill="white"/>
<path fill-rule="evenodd" clip-rule="evenodd" d="M34.9486 23.1577V24.1147H34.2715V20.8611C34.7551 20.8611 35.2388 20.8611 35.8191 20.8611C37.3668 20.8611 37.3668 23.1577 35.8191 23.1577H34.9486ZM38.4308 23.062H37.9471V24.1147H37.27V20.8611H37.3668C37.8504 20.8611 38.334 20.8611 38.8177 20.8611C39.4948 20.8611 39.9784 21.2439 39.9784 22.0094C39.9784 22.4879 39.785 22.8707 39.3013 22.9663L40.1719 24.019V24.1147H39.3981L38.4308 23.062ZM41.8162 20.8611C42.8802 20.8611 43.5573 21.5309 43.4606 22.4879C43.4606 23.4448 42.8802 24.2104 41.8162 24.2104C40.849 24.2104 40.1719 23.5405 40.1719 22.4879C40.1719 21.5309 40.849 20.8611 41.8162 20.8611ZM34.9486 21.5309V22.4879H35.8191C36.4962 22.4879 36.4962 21.5309 35.8191 21.5309H34.9486ZM37.9471 21.5309V22.3922H38.8177C39.1079 22.3922 39.3013 22.2965 39.3013 22.0094C39.3013 21.7223 39.1079 21.5309 38.8177 21.5309H37.9471ZM41.8162 21.4352C41.2359 21.4352 40.849 21.9137 40.849 22.4879C40.849 23.062 41.2359 23.5405 41.8162 23.5405C42.4933 23.5405 42.7835 23.062 42.7835 22.4879C42.7835 21.9137 42.4933 21.4352 41.8162 21.4352Z" fill="white"/>
<path fill-rule="evenodd" clip-rule="evenodd" d="M8.54133 28.9951C6.89696 29.1865 5.05914 29.0908 3.80168 27.9425C2.73767 26.8898 2.44749 25.3587 2.44749 23.9233V19.0429C2.44749 17.1291 1.86712 15.6937 0.0292969 15.4066V13.6841C1.86712 13.397 2.44749 11.8659 2.44749 10.0477V5.16735C2.44749 3.73194 2.73767 2.10515 3.80168 1.14821C5.05914 -0.0958096 6.89696 -0.0958097 8.54133 0.0955779V1.81807C6.3166 1.62668 5.44605 2.8707 5.44605 5.35874V10.0477C5.44605 10.8133 5.44605 11.9616 5.15586 12.7272C4.76895 13.4927 3.80168 14.0669 2.93113 14.5453C3.80168 15.0238 4.76895 15.598 5.15586 16.3635C5.44605 17.1291 5.44605 18.2774 5.44605 19.0429V23.7319C5.44605 26.4114 6.21987 27.2726 8.54133 27.1769V28.9951Z" fill="white"/>
</g>
<defs>
<clipPath id="clip0_1564_9511">
<rect width="55" height="40" fill="white"/>
</clipPath>
</defs>
</svg>

