<svg width="32" height="32" viewBox="0 0 32 32" fill="none" xmlns="http://www.w3.org/2000/svg">
<path d="M25.3633 22.6358C24.7389 22.0377 24.1311 21.4223 23.5407 20.7905C23.0447 20.2865 22.746 19.9198 22.746 19.9198L19.0127 18.1372C20.5073 16.442 21.3322 14.2598 21.3327 11.9998C21.3327 6.8545 17.146 2.6665 11.9993 2.6665C6.85268 2.6665 2.66602 6.8545 2.66602 11.9998C2.66602 17.1452 6.85268 21.3332 11.9993 21.3332C14.35 21.3332 16.4927 20.4532 18.1367 19.0145L19.9193 22.7478C19.9193 22.7478 20.286 23.0465 20.79 23.5425C21.306 24.0265 21.9847 24.6812 22.6353 25.3652L24.446 27.2212L25.2513 28.0825L28.0793 25.2545L27.218 24.4492C26.7127 23.9532 26.038 23.2945 25.3633 22.6358ZM11.9993 18.6665C8.32335 18.6665 5.33268 15.6758 5.33268 11.9998C5.33268 8.32384 8.32335 5.33317 11.9993 5.33317C15.6753 5.33317 18.666 8.32384 18.666 11.9998C18.666 15.6758 15.6753 18.6665 11.9993 18.6665Z" fill="white"/>
</svg>

